<svg xmlns="http://www.w3.org/2000/svg" xmlns:xlink="http://www.w3.org/1999/xlink" width="192" zoomAndPan="magnify" viewBox="0 0 144 143.999998" height="192" preserveAspectRatio="xMidYMid meet" version="1.0"><defs><g/><clipPath id="b31b1bccfd"><path d="M 14.398438 7.78125 L 129.601562 7.78125 L 129.601562 122.980469 L 14.398438 122.980469 Z M 14.398438 7.78125 " clip-rule="nonzero"/></clipPath><clipPath id="d49caad7b0"><path d="M 72 122.980469 C 56.621094 122.980469 42.140625 116.992188 31.273438 106.105469 C 20.386719 95.238281 14.398438 80.757812 14.398438 65.378906 C 14.398438 50 20.386719 35.519531 31.273438 24.652344 C 42.140625 13.765625 56.621094 7.78125 72 7.78125 C 87.378906 7.78125 101.859375 13.765625 112.726562 24.652344 C 123.613281 35.542969 129.601562 50 129.601562 65.378906 C 129.601562 80.757812 123.613281 95.238281 112.726562 106.105469 C 101.859375 116.992188 87.378906 122.980469 72 122.980469 Z M 72 11.234375 C 57.542969 11.234375 43.9375 16.871094 33.714844 27.09375 C 23.492188 37.316406 17.851562 50.921875 17.851562 65.378906 C 17.851562 79.835938 23.492188 93.441406 33.714844 103.664062 C 43.9375 113.886719 57.542969 119.527344 72 119.527344 C 86.457031 119.527344 100.0625 113.886719 110.285156 103.664062 C 120.507812 93.441406 126.148438 79.835938 126.148438 65.378906 C 126.148438 50.921875 120.507812 37.316406 110.285156 27.09375 C 100.0625 16.871094 86.457031 11.234375 72 11.234375 Z M 72 11.234375 " clip-rule="nonzero"/></clipPath></defs><rect x="-14.4" width="172.8" fill="#ffffff" y="-14.4" height="172.799997" fill-opacity="1"/><rect x="-14.4" width="172.8" fill="#004aad" y="-14.4" height="172.799997" fill-opacity="1"/><g clip-path="url(#b31b1bccfd)"><g clip-path="url(#d49caad7b0)"><path fill="#ffffff" d="M 14.398438 7.78125 L 129.601562 7.78125 L 129.601562 122.980469 L 14.398438 122.980469 Z M 14.398438 7.78125 " fill-opacity="1" fill-rule="nonzero"/></g></g><g fill="#ffffff" fill-opacity="1"><g transform="translate(24.240795, 83.830651)"><g><path d="M 5.171875 0 L 5.171875 -42.046875 L 10.09375 -42.046875 L 23.96875 -21.625 L 37.84375 -42.046875 L 42.640625 -42.046875 L 42.640625 0 L 36.640625 0 L 36.640625 -29.609375 L 25.640625 -13.28125 L 22.21875 -13.28125 L 11.234375 -29.609375 L 11.234375 0 Z M 5.171875 0 "/></g></g></g><g fill="#ffffff" fill-opacity="1"><g transform="translate(79.288187, 85.08769)"><g><path d="M 9.640625 -5.53125 L 33.90625 -5.53125 L 33.90625 0 L 2.453125 0 L 2.453125 -5.09375 L 26.296875 -37.90625 L 2.453125 -37.90625 L 2.453125 -43.4375 L 33.609375 -43.4375 L 33.609375 -38.578125 Z M 9.640625 -5.53125 "/></g></g></g><path stroke-linecap="butt" transform="matrix(-0.00517152, -0.749982, 0.749982, -0.00517152, 72.502593, 100.629987)" fill="none" stroke-linejoin="miter" d="M 0.00150262 1.501797 L 97.456953 1.501913 " stroke="#ffffff" stroke-width="3" stroke-opacity="1" stroke-miterlimit="4"/></svg>